<svg width="4202" height="602" viewBox="0 0 4202 602" fill="none" xmlns="http://www.w3.org/2000/svg">
<path d="M638.122 291.098L597.146 223.78L744.951 7.19511L1128.37 592.561H1044.95L744.951 131.585L638.122 291.098Z" fill="#EBDD63"/>
<path d="M790.317 594.024H705.439L411.293 134.512L137.634 520.854H389.341L509.341 348.171L550.317 415.488L424.463 594.024L3 591.098L411.293 7.1951L790.317 594.024Z" fill="#07143F" stroke="black" stroke-width="2.92683"/>
<path d="M1408.28 211.505C1409.27 212.983 1410.99 215.857 1413.46 220.127C1415.92 224.233 1418.79 229.077 1422.08 234.661C1425.36 240.08 1428.73 245.828 1432.18 251.905C1435.79 257.817 1439.08 263.483 1442.03 268.902C1445.15 274.158 1447.62 278.674 1449.42 282.451C1451.39 286.064 1452.38 288.363 1452.38 289.349C1452.38 291.155 1451.97 292.715 1451.15 294.029C1450.33 295.343 1448.85 296 1446.71 296H1419.61C1417.64 296 1416.08 295.672 1414.93 295.015C1413.78 294.193 1412.72 292.88 1411.73 291.073L1367.14 212.244H1315.17V287.378C1315.17 289.677 1314.59 291.73 1313.44 293.537C1312.46 295.179 1310.73 296 1308.27 296H1285.85C1283.39 296 1281.58 295.179 1280.43 293.537C1279.28 291.73 1278.71 289.677 1278.71 287.378V184.161C1278.71 181.862 1279.2 179.891 1280.19 178.249C1281.33 176.606 1283.22 175.785 1285.85 175.785H1393.01C1396.79 175.785 1399.74 175.211 1401.88 174.061C1404.18 172.747 1405.9 171.023 1407.05 168.888C1408.2 166.753 1408.94 164.289 1409.27 161.498C1409.76 158.706 1410.01 155.75 1410.01 152.629C1410.01 149.509 1409.76 146.553 1409.27 143.761C1408.94 140.969 1408.2 138.506 1407.05 136.371C1405.9 134.236 1404.18 132.593 1401.88 131.444C1399.74 130.13 1396.79 129.473 1393.01 129.473H1285.85C1283.22 129.473 1281.33 128.652 1280.19 127.01C1279.2 125.367 1278.71 123.397 1278.71 121.098V101.637C1278.71 99.3374 1279.2 97.3667 1280.19 95.7244C1281.33 93.9179 1283.22 93.0146 1285.85 93.0146H1399.41C1408.78 93.0146 1416.49 94.5748 1422.57 97.6951C1428.65 100.815 1433.41 105.085 1436.86 110.505C1440.47 115.924 1443.02 122.247 1444.5 129.473C1445.97 136.699 1446.71 144.418 1446.71 152.629C1446.71 159.527 1446.14 166.342 1444.99 173.076C1444 179.645 1442.03 185.639 1439.08 191.059C1436.28 196.314 1432.42 200.83 1427.5 204.607C1422.57 208.22 1416.17 210.52 1408.28 211.505ZM1511.92 93.0146C1512.9 93.0146 1514.3 93.5073 1516.1 94.4927C1517.91 95.478 1518.81 97.8593 1518.81 101.637V287.624C1518.81 291.402 1517.91 293.783 1516.1 294.768C1514.3 295.754 1512.9 296.246 1511.92 296.246H1489.25C1488.27 296.246 1486.87 295.754 1485.06 294.768C1483.26 293.783 1482.35 291.402 1482.35 287.624V101.637C1482.35 97.8593 1483.26 95.478 1485.06 94.4927C1486.87 93.5073 1488.27 93.0146 1489.25 93.0146H1511.92ZM1591.86 167.41C1591.86 169.709 1592.51 171.515 1593.83 172.829C1595.31 174.143 1596.95 174.8 1598.75 174.8H1672.66C1680.21 174.8 1686.45 176.278 1691.38 179.234C1696.47 182.026 1700.49 185.803 1703.45 190.566C1706.41 195.328 1708.46 200.83 1709.61 207.071C1710.92 213.147 1711.58 219.388 1711.58 225.793V247.471C1711.58 253.876 1710.84 260.034 1709.36 265.946C1708.05 271.859 1705.83 277.032 1702.71 281.466C1699.59 285.9 1695.48 289.431 1690.39 292.059C1685.47 294.686 1679.39 296 1672.16 296H1561.06C1558.44 296 1556.55 295.179 1555.4 293.537C1554.41 291.894 1553.92 289.924 1553.92 287.624V267.917C1553.92 265.618 1554.41 263.647 1555.4 262.005C1556.55 260.363 1558.44 259.541 1561.06 259.541H1666.25C1670.19 259.541 1672.66 258.146 1673.64 255.354C1674.63 252.398 1675.12 249.277 1675.12 245.993V224.807C1675.12 221.687 1674.63 218.649 1673.64 215.693C1672.66 212.737 1670.28 211.259 1666.5 211.259H1592.6C1578.97 211.259 1569.11 207.399 1563.04 199.68C1557.12 191.962 1554.17 181.205 1554.17 167.41V135.632C1554.17 130.705 1554.74 125.696 1555.89 120.605C1557.04 115.514 1559.01 110.998 1561.8 107.056C1564.76 102.95 1568.7 99.5837 1573.63 96.9561C1578.72 94.3284 1585.21 93.0146 1593.09 93.0146H1699.26C1701.73 93.0146 1703.45 93.8358 1704.44 95.478C1705.59 97.1203 1706.16 99.091 1706.16 101.39V121.098C1706.16 123.397 1705.59 125.367 1704.44 127.01C1703.45 128.652 1701.73 129.473 1699.26 129.473H1599C1597.36 129.473 1595.72 130.048 1594.07 131.198C1592.6 132.347 1591.86 133.825 1591.86 135.632V167.41ZM1907.08 285.161C1907.9 286.311 1908.23 288.199 1908.06 290.827C1907.9 294.276 1906.01 296 1902.4 296H1875.79C1873.33 296 1871.61 295.507 1870.62 294.522C1869.63 293.701 1868.73 292.551 1867.91 291.073L1829.48 223.822C1826.85 218.895 1824.14 215.693 1821.35 214.215C1818.72 212.572 1814.29 211.751 1808.05 211.751H1783.17V287.378C1783.17 291.155 1782.27 293.537 1780.46 294.522C1778.65 295.507 1777.26 296 1776.27 296H1753.61C1752.62 296 1751.14 295.507 1749.17 294.522C1747.37 293.537 1746.46 291.155 1746.46 287.378V101.637C1746.46 97.6951 1747.37 95.3138 1749.17 94.4927C1751.14 93.5073 1752.62 93.0146 1753.61 93.0146H1776.27C1777.26 93.0146 1778.65 93.5073 1780.46 94.4927C1782.27 95.3138 1783.17 97.6951 1783.17 101.637V175.293H1805.83C1811.58 175.293 1815.85 174.636 1818.64 173.322C1821.6 171.844 1824.39 168.641 1827.02 163.715L1864.21 97.9414C1864.54 97.2845 1864.87 96.7097 1865.2 96.2171C1865.69 95.5601 1866.27 94.9854 1866.92 94.4927C1867.91 93.5073 1869.72 93.0146 1872.34 93.0146H1896.73C1899.69 93.0146 1901.58 94.1642 1902.4 96.4634C1903.22 98.7626 1902.97 100.98 1901.66 103.115L1861.01 174.554C1858.55 178.659 1856.33 182.354 1854.36 185.639C1852.72 188.267 1851.16 190.402 1849.68 192.044C1851.98 194.343 1854.36 197.135 1856.82 200.42C1859.45 203.54 1862 207.235 1864.46 211.505L1907.08 285.161Z" fill="#07143F"/>
<path d="M2093.74 167.41C2093.74 169.709 2094.4 171.515 2095.71 172.829C2097.19 174.143 2098.83 174.8 2100.64 174.8H2174.54C2182.1 174.8 2188.34 176.278 2193.26 179.234C2198.35 182.026 2202.38 185.803 2205.33 190.566C2208.29 195.328 2210.34 200.83 2211.49 207.071C2212.81 213.147 2213.46 219.388 2213.46 225.793V247.471C2213.46 253.876 2212.72 260.034 2211.25 265.946C2209.93 271.859 2207.72 277.032 2204.6 281.466C2201.47 285.9 2197.37 289.431 2192.28 292.059C2187.35 294.686 2181.27 296 2174.05 296H2062.95C2060.32 296 2058.43 295.179 2057.28 293.537C2056.3 291.894 2055.8 289.924 2055.8 287.624V267.917C2055.8 265.618 2056.3 263.647 2057.28 262.005C2058.43 260.363 2060.32 259.541 2062.95 259.541H2168.14C2172.08 259.541 2174.54 258.146 2175.53 255.354C2176.51 252.398 2177 249.277 2177 245.993V224.807C2177 221.687 2176.51 218.649 2175.53 215.693C2174.54 212.737 2172.16 211.259 2168.38 211.259H2094.48C2080.85 211.259 2071 207.399 2064.92 199.68C2059.01 191.962 2056.05 181.205 2056.05 167.41V135.632C2056.05 130.705 2056.63 125.696 2057.78 120.605C2058.93 115.514 2060.9 110.998 2063.69 107.056C2066.64 102.95 2070.59 99.5837 2075.51 96.9561C2080.6 94.3284 2087.09 93.0146 2094.97 93.0146H2201.15C2203.61 93.0146 2205.33 93.8358 2206.32 95.478C2207.47 97.1203 2208.04 99.091 2208.04 101.39V121.098C2208.04 123.397 2207.47 125.367 2206.32 127.01C2205.33 128.652 2203.61 129.473 2201.15 129.473H2100.89C2099.24 129.473 2097.6 130.048 2095.96 131.198C2094.48 132.347 2093.74 133.825 2093.74 135.632V167.41ZM2407.48 93.0146C2408.63 93.0146 2410.11 93.5073 2411.92 94.4927C2413.72 95.478 2414.63 97.8593 2414.63 101.637V287.378C2414.63 291.155 2413.72 293.537 2411.92 294.522C2410.11 295.507 2408.63 296 2407.48 296H2384.82C2383.84 296 2382.44 295.507 2380.63 294.522C2378.99 293.537 2378.17 291.155 2378.17 287.378V211.751H2284.81V287.378C2284.81 291.155 2283.9 293.537 2282.1 294.522C2280.45 295.507 2279.06 296 2277.91 296H2255.49C2254.34 296 2252.86 295.507 2251.06 294.522C2249.25 293.537 2248.35 291.155 2248.35 287.378V101.637C2248.35 97.8593 2249.25 95.478 2251.06 94.4927C2252.86 93.5073 2254.34 93.0146 2255.49 93.0146H2277.91C2279.06 93.0146 2280.45 93.5073 2282.1 94.4927C2283.9 95.478 2284.81 97.8593 2284.81 101.637V175.293H2378.17V101.637C2378.17 97.8593 2378.99 95.478 2380.63 94.4927C2382.44 93.5073 2383.84 93.0146 2384.82 93.0146H2407.48ZM2538.21 90.3049C2542.65 90.3049 2546.43 90.9618 2549.55 92.2756C2552.83 93.5894 2555.62 95.3959 2557.92 97.6951C2560.39 99.8301 2562.44 102.458 2564.08 105.578C2565.89 108.698 2567.53 112.147 2569.01 115.924L2638.23 286.639C2638.89 288.281 2639.21 289.677 2639.21 290.827C2639.21 292.469 2638.64 293.783 2637.49 294.768C2636.5 295.754 2635.19 296.246 2633.55 296.246H2607.19C2603.74 296.246 2601.36 294.44 2600.05 290.827L2538.71 137.849H2537.72L2505.7 218.402H2536.24C2539.53 218.402 2541.91 220.045 2543.39 223.329C2543.88 224.479 2544.62 226.285 2545.6 228.749C2546.75 231.048 2547.82 233.429 2548.81 235.893C2549.96 238.356 2550.86 240.737 2551.52 243.037C2552.34 245.172 2552.75 246.814 2552.75 247.963C2552.75 250.263 2552.01 252.151 2550.53 253.629C2549.05 255.107 2547.17 255.846 2544.87 255.846H2490.92L2476.88 291.073C2475.56 294.522 2473.26 296.246 2469.98 296.246H2442.88C2439.1 296.246 2437.21 294.44 2437.21 290.827C2437.21 289.185 2437.46 287.789 2437.95 286.639L2506.68 115.924C2509.64 108.534 2513.5 102.458 2518.26 97.6951C2523.02 92.7683 2529.67 90.3049 2538.21 90.3049ZM2791.57 211.505C2792.55 212.983 2794.28 215.857 2796.74 220.127C2799.21 224.233 2802.08 229.077 2805.36 234.661C2808.65 240.08 2812.02 245.828 2815.46 251.905C2819.08 257.817 2822.36 263.483 2825.32 268.902C2828.44 274.158 2830.9 278.674 2832.71 282.451C2834.68 286.064 2835.66 288.363 2835.66 289.349C2835.66 291.155 2835.25 292.715 2834.43 294.029C2833.61 295.343 2832.13 296 2830 296H2802.9C2800.93 296 2799.37 295.672 2798.22 295.015C2797.07 294.193 2796 292.88 2795.02 291.073L2750.43 212.244H2698.45V287.378C2698.45 289.677 2697.88 291.73 2696.73 293.537C2695.74 295.179 2694.02 296 2691.55 296H2669.14C2666.67 296 2664.87 295.179 2663.72 293.537C2662.57 291.73 2661.99 289.677 2661.99 287.378V184.161C2661.99 181.862 2662.49 179.891 2663.47 178.249C2664.62 176.606 2666.51 175.785 2669.14 175.785H2776.3C2780.07 175.785 2783.03 175.211 2785.16 174.061C2787.46 172.747 2789.19 171.023 2790.34 168.888C2791.49 166.753 2792.23 164.289 2792.55 161.498C2793.05 158.706 2793.29 155.75 2793.29 152.629C2793.29 149.509 2793.05 146.553 2792.55 143.761C2792.23 140.969 2791.49 138.506 2790.34 136.371C2789.19 134.236 2787.46 132.593 2785.16 131.444C2783.03 130.13 2780.07 129.473 2776.3 129.473H2669.14C2666.51 129.473 2664.62 128.652 2663.47 127.01C2662.49 125.367 2661.99 123.397 2661.99 121.098V101.637C2661.99 99.3374 2662.49 97.3667 2663.47 95.7244C2664.62 93.9179 2666.51 93.0146 2669.14 93.0146H2782.7C2792.06 93.0146 2799.78 94.5748 2805.86 97.6951C2811.93 100.815 2816.7 105.085 2820.14 110.505C2823.76 115.924 2826.3 122.247 2827.78 129.473C2829.26 136.699 2830 144.418 2830 152.629C2830 159.527 2829.42 166.342 2828.27 173.076C2827.29 179.645 2825.32 185.639 2822.36 191.059C2819.57 196.314 2815.71 200.83 2810.78 204.607C2805.86 208.22 2799.45 210.52 2791.57 211.505ZM2895.2 93.0146C2896.19 93.0146 2897.58 93.5073 2899.39 94.4927C2901.2 95.478 2902.1 97.8593 2902.1 101.637V287.624C2902.1 291.402 2901.2 293.783 2899.39 294.768C2897.58 295.754 2896.19 296.246 2895.2 296.246H2872.54C2871.55 296.246 2870.16 295.754 2868.35 294.768C2866.54 293.783 2865.64 291.402 2865.64 287.624V101.637C2865.64 97.8593 2866.54 95.478 2868.35 94.4927C2870.16 93.5073 2871.55 93.0146 2872.54 93.0146H2895.2ZM3114.08 93.0146C3116.54 93.0146 3118.27 93.9179 3119.25 95.7244C3120.4 97.3667 3120.98 99.3374 3120.98 101.637V264.222C3120.98 267.999 3120.73 271.776 3120.24 275.554C3119.75 279.331 3118.51 282.78 3116.54 285.9C3114.74 288.856 3111.95 291.32 3108.17 293.29C3104.39 295.097 3099.14 296 3092.4 296C3087.97 296 3084.03 295.918 3080.58 295.754C3077.13 295.589 3073.93 294.933 3070.97 293.783C3068.18 292.633 3065.55 290.827 3063.09 288.363C3060.62 285.9 3058.16 282.451 3055.7 278.017L2976.87 139.08H2975.64V287.378C2975.64 289.677 2975.06 291.73 2973.91 293.537C2972.93 295.179 2971.2 296 2968.74 296H2946.81C2944.35 296 2942.54 295.179 2941.39 293.537C2940.25 291.73 2939.67 289.677 2939.67 287.378V124.793C2939.67 120.851 2939.83 116.992 2940.16 113.215C2940.66 109.437 2941.64 106.071 2943.12 103.115C2944.6 100.159 2946.73 97.7772 2949.52 95.9707C2952.32 94 2956.09 93.0146 2960.86 93.0146H2979.33C2983.44 93.0146 2986.72 93.3431 2989.19 94C2991.81 94.6569 2993.95 95.7244 2995.59 97.2024C2997.4 98.5162 2999.04 100.323 3000.52 102.622C3001.99 104.921 3003.64 107.713 3005.44 110.998L3084.03 249.934H3085.26V101.637C3085.26 99.3374 3085.75 97.3667 3086.74 95.7244C3087.72 93.9179 3089.53 93.0146 3092.16 93.0146H3114.08ZM3322.64 93.0146C3325.1 93.0146 3326.83 93.9179 3327.81 95.7244C3328.96 97.3667 3329.54 99.3374 3329.54 101.637V120.851C3329.54 123.15 3328.96 125.203 3327.81 127.01C3326.83 128.652 3325.1 129.473 3322.64 129.473H3217.94C3211.87 129.473 3207.1 130.459 3203.66 132.429C3200.21 134.236 3197.58 136.781 3195.77 140.066C3194.13 143.35 3193.15 147.21 3192.82 151.644C3192.49 156.078 3192.32 160.841 3192.32 165.932V222.837C3192.32 227.928 3192.49 232.772 3192.82 237.371C3193.15 241.805 3194.13 245.664 3195.77 248.949C3197.42 252.069 3199.96 254.615 3203.41 256.585C3206.86 258.392 3211.7 259.295 3217.94 259.295H3286.92C3288.89 259.295 3290.45 258.802 3291.6 257.817C3292.75 256.832 3293.57 255.6 3294.06 254.122C3294.56 252.48 3294.8 250.837 3294.8 249.195C3294.97 247.389 3295.05 245.746 3295.05 244.268V210.027H3233.46C3230.84 210.027 3229.03 209.124 3228.04 207.317C3227.06 205.511 3226.57 203.458 3226.57 201.159C3226.57 199.68 3226.4 197.463 3226.07 194.507C3225.91 191.387 3225.91 188.267 3226.07 185.146C3226.24 182.026 3226.81 179.316 3227.8 177.017C3228.95 174.718 3230.84 173.568 3233.46 173.568H3320.67C3323.79 173.568 3326.01 174.718 3327.32 177.017C3328.63 179.152 3329.29 181.615 3329.29 184.407V250.18C3329.29 255.107 3328.96 260.28 3328.3 265.7C3327.81 270.955 3326.58 275.882 3324.61 280.48C3322.64 284.915 3319.76 288.61 3315.99 291.566C3312.37 294.522 3307.37 296 3300.96 296H3216.71C3204.07 296 3193.72 294.111 3185.67 290.334C3177.79 286.557 3171.63 281.302 3167.2 274.568C3162.76 267.835 3159.73 259.706 3158.08 250.18C3156.6 240.655 3155.87 230.145 3155.87 218.649V170.12C3155.87 158.952 3156.6 148.688 3158.08 139.327C3159.73 129.966 3162.68 121.837 3166.95 114.939C3171.39 108.041 3177.54 102.704 3185.43 98.9268C3193.47 94.9854 3203.9 93.0146 3216.71 93.0146H3322.64Z" fill="#07143F"/>
<path d="M1366.99 464.815C1374.6 464.815 1381.51 466.653 1387.73 470.33C1394.07 473.881 1399.14 478.762 1402.94 484.975C1406.87 491.062 1408.84 497.972 1408.84 505.707C1408.84 513.568 1406.81 520.732 1402.75 527.199C1398.69 533.665 1393.3 538.801 1386.58 542.605C1379.86 546.282 1372.51 548.12 1364.52 548.12H1318.3V597.951H1297.76V464.815H1366.99ZM1363.19 528.34C1367.5 528.34 1371.5 527.326 1375.17 525.297C1378.85 523.268 1381.77 520.542 1383.92 517.118C1386.08 513.695 1387.15 509.891 1387.15 505.707C1387.15 501.776 1386.08 498.226 1383.92 495.056C1381.77 491.886 1378.85 489.35 1375.17 487.448C1371.5 485.546 1367.5 484.595 1363.19 484.595H1318.3V528.34H1363.19ZM1617.84 578.171V597.951H1517.99V464.815H1538.53V578.171H1617.84ZM1833.53 597.951L1819.26 565.998H1748.89L1734.44 597.951H1713.14L1773.24 464.815H1796.25L1855.97 597.951H1833.53ZM1773.81 511.222L1757.83 546.218H1810.33L1793.97 510.462C1792.32 506.404 1790.67 502.41 1789.02 498.479C1787.38 494.549 1785.73 490.364 1784.08 485.926C1782.3 490.491 1780.59 494.866 1778.94 499.05C1777.29 503.107 1775.58 507.165 1773.81 511.222ZM1980.53 597.951V484.595H1934.89V464.815H2048.05V484.595H2001.07V597.951H1980.53ZM2152.47 597.951V464.815H2253.47V484.595H2173.02V522.634H2244.91V542.414H2173.02V597.951H2152.47ZM2501.91 531.383C2501.91 541.02 2500.07 550.022 2496.39 558.391C2492.72 566.632 2487.52 573.86 2480.8 580.073C2474.08 586.286 2466.15 591.168 2457.02 594.718C2447.89 598.141 2437.81 599.853 2426.78 599.853C2415.88 599.853 2405.8 598.141 2396.54 594.718C2387.41 591.168 2379.49 586.286 2372.77 580.073C2366.17 573.86 2361.04 566.632 2357.36 558.391C2353.68 550.022 2351.85 541.02 2351.85 531.383C2351.85 521.746 2353.68 512.807 2357.36 504.566C2361.04 496.197 2366.17 488.906 2372.77 482.693C2379.49 476.48 2387.41 471.662 2396.54 468.238C2405.8 464.688 2415.88 462.913 2426.78 462.913C2437.81 462.913 2447.89 464.688 2457.02 468.238C2466.15 471.662 2474.08 476.48 2480.8 482.693C2487.52 488.906 2492.72 496.197 2496.39 504.566C2500.07 512.807 2501.91 521.746 2501.91 531.383ZM2480.99 531.383C2480.99 522.127 2478.64 513.885 2473.95 506.658C2469.39 499.303 2462.98 493.534 2454.74 489.35C2446.63 485.039 2437.31 482.883 2426.78 482.883C2416.13 482.883 2406.75 485.039 2398.63 489.35C2390.52 493.534 2384.18 499.303 2379.61 506.658C2375.05 513.885 2372.77 522.127 2372.77 531.383C2372.77 540.639 2375.05 548.944 2379.61 556.299C2384.18 563.526 2390.52 569.295 2398.63 573.606C2406.75 577.791 2416.13 579.883 2426.78 579.883C2437.31 579.883 2446.63 577.791 2454.74 573.606C2462.98 569.295 2469.39 563.463 2473.95 556.108C2478.64 548.754 2480.99 540.512 2480.99 531.383ZM2723.54 506.277C2723.54 515.28 2720.76 523.395 2715.18 530.622C2709.72 537.723 2702.75 542.795 2694.25 545.838L2730.39 598.141L2704.91 597.951L2671.05 548.501H2631.11V597.951H2610.57V464.815H2680.75C2688.23 464.815 2695.21 466.59 2701.67 470.14C2708.14 473.691 2713.4 478.572 2717.46 484.785C2721.52 490.998 2723.54 498.162 2723.54 506.277ZM2675.81 484.595H2631.11V528.72H2677.71C2682.27 528.72 2686.39 527.706 2690.07 525.677C2693.75 523.522 2696.6 520.732 2698.63 517.309C2700.78 513.885 2701.86 510.208 2701.86 506.277C2701.86 502.093 2700.66 498.352 2698.25 495.056C2695.97 491.759 2692.8 489.223 2688.74 487.448C2684.81 485.546 2680.5 484.595 2675.81 484.595ZM2862.28 464.815L2914.4 535.757L2966.89 464.815H2986.67V597.951H2966.13V542.224C2966.13 533.982 2966.26 526.184 2966.51 518.83C2966.89 511.476 2967.46 504.185 2968.22 496.958L2920.48 559.722H2907.93L2860.57 496.958C2861.33 504.312 2861.84 511.666 2862.09 519.02C2862.47 526.248 2862.66 533.982 2862.66 542.224V597.951H2842.12V464.815H2862.28Z" fill="#EBDD63"/>
</svg>
